<?xml version="1.0" standalone="no"?>
<!DOCTYPE svg PUBLIC "-//W3C//DTD SVG 20010904//EN"
 "http://www.w3.org/TR/2001/REC-SVG-20010904/DTD/svg10.dtd">
<svg version="1.0" xmlns="http://www.w3.org/2000/svg"
 width="820.000000pt" height="535.000000pt" viewBox="0 0 820.000000 535.000000"
 preserveAspectRatio="xMidYMid meet">

<g transform="translate(0.000000,535.000000) scale(0.100000,-0.100000)"
fill="#000000" stroke="none">
<path d="M4765 3133 c-81 -20 -95 -25 -90 -33 3 -6 0 -7 -8 -4 -18 7 -120 -73
-111 -88 4 -6 3 -8 -3 -5 -21 13 -102 -110 -106 -162 -1 -16 -5 -27 -9 -24 -5
2 -8 1 -8 -4 0 -4 -4 -36 -10 -71 -9 -66 -3 -135 11 -127 4 3 6 -4 4 -15 -5
-24 23 -110 36 -110 5 0 9 -8 9 -19 0 -31 90 -116 160 -152 63 -33 69 -34 176
-33 84 0 120 5 148 18 34 16 39 16 61 2 57 -38 66 -20 64 126 -1 93 -4 108
-18 108 -10 0 -27 -24 -46 -63 -16 -34 -45 -79 -65 -100 -52 -57 -87 -70 -175
-65 -69 3 -77 6 -110 38 -63 62 -70 95 -70 360 l0 235 30 60 c33 66 65 89 137
100 66 10 118 -8 169 -58 44 -44 52 -56 84 -134 12 -29 24 -43 37 -43 16 0 18
10 18 108 0 131 -5 140 -57 123 -33 -11 -44 -10 -84 7 -48 21 -139 34 -174 25z"/>
<path d="M4054 3118 c-12 -18 10 -27 50 -22 28 4 46 2 51 -5 7 -12 8 -362 1
-369 -2 -2 -23 10 -47 27 -50 37 -122 43 -145 14 -8 -11 -13 -13 -14 -5 0 24
-27 12 -72 -33 -59 -58 -81 -105 -86 -185 -5 -86 27 -160 95 -220 47 -40 49
-41 113 -37 84 5 95 9 123 35 31 29 37 28 37 -6 0 -24 4 -28 28 -26 15 0 64 2
109 2 69 2 81 4 77 17 -4 10 -20 15 -45 15 l-39 0 -2 403 -3 402 -113 0 c-63
0 -116 -3 -118 -7z m37 -380 c61 -34 72 -68 67 -217 -3 -102 -7 -131 -22 -153
-39 -58 -127 -87 -170 -55 -26 19 -35 89 -31 236 5 146 19 197 57 204 46 9 61
7 99 -15z"/>
<path d="M6433 3116 c-9 -14 19 -24 54 -19 60 10 63 1 63 -193 0 -157 -7 -204
-25 -174 -25 40 -156 67 -169 34 -5 -13 -9 -14 -21 -4 -12 10 -22 6 -52 -18
-52 -41 -67 -60 -88 -112 -27 -67 -23 -154 10 -221 33 -66 96 -123 139 -126
17 -1 32 -2 34 -3 16 -13 107 14 135 41 24 22 37 16 37 -15 0 -23 1 -23 103
-19 126 6 160 26 58 35 l-34 3 -3 385 c-3 212 -7 393 -10 402 -4 14 -20 16
-115 15 -61 -1 -113 -6 -116 -11z m63 -391 c40 -31 54 -74 54 -171 0 -130 -8
-160 -56 -210 -38 -39 -48 -44 -87 -44 -75 0 -82 15 -85 194 -3 180 9 246 48
258 40 11 89 1 126 -27z"/>
<path d="M1610 3103 c-74 -2 -145 -5 -156 -8 -19 -4 -22 -15 -30 -107 -12
-139 -11 -142 8 -146 12 -2 19 5 24 25 10 43 53 115 88 147 60 55 147 83 160
50 8 -21 8 -732 1 -745 -4 -5 -26 -9 -51 -9 -32 0 -44 -4 -44 -15 0 -18 21
-20 38 -3 7 7 12 8 12 3 0 -6 64 -10 155 -10 117 0 155 3 155 13 0 8 -17 12
-50 12 -27 0 -50 1 -51 3 0 1 -3 171 -6 378 -4 278 -2 378 6 384 23 14 88 -7
136 -43 38 -28 58 -55 89 -117 22 -44 41 -74 44 -67 2 7 8 9 14 6 7 -5 9 8 5
37 -3 24 -9 83 -13 132 l-6 87 -197 -2 c-108 -1 -257 -4 -331 -5z"/>
<path d="M2790 2781 c-99 -31 -180 -143 -180 -250 0 -112 39 -179 127 -222 58
-28 162 -34 212 -13 57 25 64 29 75 50 6 10 18 24 27 31 23 17 30 50 13 57 -8
3 -14 0 -14 -6 0 -16 -48 -76 -75 -94 -13 -9 -50 -19 -82 -24 -117 -16 -147
22 -141 180 l3 85 40 5 c22 3 90 3 150 -1 68 -4 115 -3 123 4 21 16 14 61 -18
111 -49 77 -165 116 -260 87z m107 -7 c-3 -4 5 -15 18 -26 27 -21 41 -73 31
-113 -7 -26 -7 -26 -99 -23 l-92 3 -3 46 c-4 62 26 99 89 109 63 11 63 11 56
4z"/>
<path d="M2243 2773 c-35 -2 -63 -8 -63 -13 0 -6 -9 -10 -20 -10 -11 0 -20 5
-20 11 0 5 -5 7 -11 3 -18 -11 3 -22 46 -26 l40 -3 0 -210 0 -210 -42 -3 c-31
-2 -41 -7 -36 -17 4 -11 18 -13 56 -10 89 7 224 8 236 1 6 -4 11 -2 11 4 0 6
5 8 11 4 7 -4 10 -1 7 7 -3 9 -20 14 -49 14 l-44 0 -7 50 c-3 28 -7 94 -7 147
-1 107 13 155 59 194 28 25 40 22 40 -7 0 -27 44 -69 73 -69 32 0 67 40 67 76
0 92 -147 99 -206 9 -23 -36 -32 -31 -36 18 -3 47 0 46 -105 40z"/>
<path d="M3467 2773 c-16 -3 -46 -22 -68 -44 -21 -21 -41 -39 -44 -39 -3 0 -8
18 -11 40 l-7 40 -88 0 c-65 0 -89 -3 -89 -12 0 -9 -4 -8 -10 2 -9 13 -11 13
-20 0 -8 -12 -2 -16 35 -18 31 -2 46 -8 49 -20 8 -25 1 -386 -8 -400 -4 -7
-23 -12 -42 -12 -24 0 -34 -4 -32 -12 8 -24 278 -22 278 2 0 5 -12 10 -27 12
l-28 3 0 150 c0 171 3 188 44 234 23 26 40 34 75 38 45 5 46 5 61 -30 11 -27
15 -75 15 -185 0 -82 -3 -164 -6 -181 -6 -28 -10 -31 -45 -31 -22 0 -39 -5
-39 -10 0 -14 30 -25 39 -14 3 5 62 7 129 4 69 -3 126 -1 130 4 3 5 0 6 -6 2
-7 -4 -12 -2 -12 4 0 6 -3 9 -7 7 -5 -3 -18 -1 -30 4 -23 8 -23 11 -23 191 0
166 -2 186 -20 216 -13 22 -26 32 -35 28 -8 -3 -14 0 -12 6 4 20 -76 31 -146
21z"/>
<path d="M5265 2773 c-37 -7 -86 -56 -91 -91 -7 -45 17 -82 54 -82 55 1 80 42
57 97 -19 45 -19 53 1 53 8 0 12 5 9 10 -7 11 8 14 19 3 4 -4 22 -6 40 -5 52
5 76 -32 76 -120 0 -80 1 -79 -118 -97 -90 -14 -156 -54 -170 -104 -10 -36 -5
-97 8 -97 5 0 11 -8 15 -18 8 -27 48 -42 108 -42 50 0 69 8 133 55 20 15 23
14 48 -20 24 -31 32 -35 75 -35 34 0 56 6 75 21 30 24 25 43 -9 35 -13 -3 -27
0 -33 7 -6 7 -12 87 -14 194 -3 203 -4 205 -75 229 -35 13 -162 17 -208 7z
m157 -313 c-4 -89 -27 -124 -85 -124 -57 0 -86 48 -73 119 8 38 36 63 89 75
69 17 72 13 69 -70z"/>
<path d="M5800 2773 c-35 -2 -68 -9 -72 -16 -6 -9 -12 -9 -27 0 -13 8 -22 9
-26 3 -8 -13 9 -18 60 -22 l40 -3 0 -210 0 -210 -42 -3 c-31 -2 -41 -7 -36
-17 4 -11 18 -13 56 -10 87 7 214 8 225 1 6 -3 13 -2 17 4 4 6 11 7 17 4 6 -4
9 -1 6 7 -4 10 -19 13 -49 12 -25 -1 -47 3 -51 10 -13 20 -9 293 4 324 28 65
88 94 88 43 0 -27 35 -60 64 -60 33 0 65 29 72 67 5 26 1 37 -19 57 -46 46
-144 27 -189 -37 l-22 -31 -9 34 c-4 19 -8 41 -9 48 -1 6 -8 11 -17 10 -9 -1
-45 -3 -81 -5z"/>
</g>
</svg>
