<svg width="1280" height="720" viewBox="0 0 1280 720" fill="none" xmlns="http://www.w3.org/2000/svg">
<rect width="1280" height="720" fill="#1E1E1E"/>
<rect width="1280" height="720" fill="white"/>
<path d="M390.277 303.195C389.691 303.195 389.398 302.941 389.398 302.434V300.957C389.398 300.449 389.691 300.195 390.277 300.195H402.324C402.91 300.195 403.203 300.449 403.203 300.957V302.434C403.203 302.941 402.91 303.195 402.324 303.195H398.012V316.355C398.012 316.785 397.816 317 397.426 317H395.176C394.785 317 394.59 316.785 394.59 316.355V303.195H390.277ZM402.172 317C401.703 317 401.469 316.766 401.469 316.297V305.398C401.469 304.93 401.703 304.695 402.172 304.695H404.023C404.492 304.695 404.727 304.93 404.727 305.398V306.359H404.773C404.977 305.859 405.316 305.418 405.793 305.035C406.27 304.652 406.832 304.461 407.48 304.461C407.926 304.461 408.293 304.516 408.582 304.625C408.855 304.727 408.961 304.914 408.898 305.188L408.57 306.582C408.5 306.895 408.289 306.988 407.938 306.863C407.734 306.793 407.539 306.758 407.352 306.758C406.602 306.758 405.98 307.207 405.488 308.105C404.996 309.004 404.75 310.312 404.75 312.031V316.297C404.75 316.766 404.516 317 404.047 317H402.172ZM410.023 310.848C410.023 308.871 410.516 307.312 411.5 306.172C412.492 305.031 413.891 304.461 415.695 304.461C417.789 304.461 419.344 305 420.359 306.078C421.375 307.156 421.883 308.891 421.883 311.281C421.883 311.75 421.664 311.984 421.227 311.984H413.492C413.617 313.281 413.938 314.098 414.453 314.434C414.969 314.77 415.566 314.938 416.246 314.938C416.895 314.938 417.391 314.852 417.734 314.68C418.078 314.508 418.367 314.273 418.602 313.977C418.867 313.633 419.195 313.578 419.586 313.812L420.758 314.527C421.219 314.809 421.285 315.145 420.957 315.535C420.48 316.105 419.922 316.531 419.281 316.812C418.641 317.094 417.629 317.234 416.246 317.234C414.004 317.234 412.406 316.664 411.453 315.523C410.5 314.383 410.023 312.824 410.023 310.848ZM413.504 309.641H418.602C418.602 308.797 418.391 308.109 417.969 307.578C417.547 307.039 416.875 306.77 415.953 306.77C415.219 306.77 414.637 307.027 414.207 307.543C413.777 308.051 413.543 308.75 413.504 309.641ZM425.141 317C424.672 317 424.438 316.766 424.438 316.297V305.398C424.438 304.93 424.672 304.695 425.141 304.695H426.992C427.461 304.695 427.695 304.93 427.695 305.398V306.078H427.742C428.102 305.461 428.559 305.039 429.113 304.812C429.668 304.578 430.336 304.461 431.117 304.461C432.336 304.461 433.344 304.844 434.141 305.609C434.938 306.375 435.336 307.773 435.336 309.805V316.297C435.336 316.766 435.102 317 434.633 317H432.758C432.289 317 432.055 316.766 432.055 316.297V310.648C432.055 308.945 431.938 307.871 431.703 307.426C431.469 306.98 430.965 306.758 430.191 306.758C429.371 306.758 428.754 307.078 428.34 307.719C427.926 308.352 427.719 309.672 427.719 311.68V316.297C427.719 316.766 427.484 317 427.016 317H425.141ZM437.844 310.848C437.844 309.129 438.215 307.637 438.957 306.371C439.707 305.098 441 304.461 442.836 304.461C443.539 304.461 444.141 304.562 444.641 304.766C445.141 304.969 445.594 305.406 446 306.078H446.047C446.016 305.766 446 305.453 446 305.141V300.406C446 299.938 446.234 299.703 446.703 299.703H448.578C449.047 299.703 449.281 299.938 449.281 300.406V316.297C449.281 316.766 449.047 317 448.578 317H446.727C446.336 317 446.125 316.766 446.094 316.297L446.047 315.617H446C445.594 316.289 445.141 316.727 444.641 316.93C444.141 317.133 443.539 317.234 442.836 317.234C441 317.234 439.707 316.602 438.957 315.336C438.215 314.062 437.844 312.566 437.844 310.848ZM441.312 310.848C441.312 312.098 441.473 313.094 441.793 313.836C442.121 314.57 442.812 314.938 443.867 314.938C444.453 314.938 444.953 314.609 445.367 313.953C445.789 313.289 446 312.43 446 311.375V310.32C446 309.266 445.789 308.41 445.367 307.754C444.953 307.09 444.453 306.758 443.867 306.758C442.812 306.758 442.121 307.129 441.793 307.871C441.473 308.605 441.312 309.598 441.312 310.848ZM451.883 308.598C451.883 305.902 452.566 303.762 453.934 302.176C455.301 300.59 457.273 299.797 459.852 299.797C461.336 299.797 462.594 300.027 463.625 300.488C464.656 300.949 465.383 301.617 465.805 302.492C466.086 303.07 466.039 303.461 465.664 303.664L464.258 304.414C463.766 304.68 463.359 304.531 463.039 303.969C462.836 303.609 462.457 303.285 461.902 302.996C461.355 302.707 460.711 302.562 459.969 302.562C458.328 302.562 457.18 303.082 456.523 304.121C455.867 305.152 455.539 306.645 455.539 308.598C455.539 310.551 455.867 312.047 456.523 313.086C457.18 314.117 458.328 314.633 459.969 314.633C460.852 314.633 461.594 314.434 462.195 314.035C462.805 313.637 463.227 313.258 463.461 312.898C463.844 312.312 464.25 312.164 464.68 312.453L466.086 313.391C466.469 313.648 466.508 314.039 466.203 314.562C465.75 315.344 464.973 316.012 463.871 316.566C462.77 317.121 461.43 317.398 459.852 317.398C457.312 317.398 455.348 316.605 453.957 315.02C452.574 313.434 451.883 311.293 451.883 308.598ZM468.43 313.719C468.43 312.156 469.176 311.023 470.668 310.32C472.16 309.617 473.863 309.242 475.777 309.195V308.727C475.777 308.008 475.598 307.5 475.238 307.203C474.879 306.906 474.379 306.758 473.738 306.758C473.285 306.758 472.883 306.824 472.531 306.957C472.188 307.082 471.887 307.23 471.629 307.402C471.379 307.566 471.152 307.734 470.949 307.906C470.59 308.219 470.293 308.234 470.059 307.953L469.086 306.758C468.844 306.461 468.902 306.156 469.262 305.844C469.535 305.602 469.852 305.391 470.211 305.211C470.578 305.031 471.062 304.863 471.664 304.707C472.266 304.543 473.047 304.461 474.008 304.461C475.633 304.461 476.879 304.836 477.746 305.586C478.621 306.336 479.059 307.441 479.059 308.902V316.297C479.059 316.766 478.824 317 478.355 317H476.434C476.012 317 475.801 316.766 475.801 316.297V315.945H475.777C475.316 316.391 474.762 316.719 474.113 316.93C473.473 317.133 472.883 317.234 472.344 317.234C471.062 317.234 470.09 316.922 469.426 316.297C468.762 315.664 468.43 314.805 468.43 313.719ZM471.898 313.648C471.898 313.922 471.953 314.16 472.062 314.363C472.172 314.559 472.344 314.703 472.578 314.797C472.812 314.891 473.074 314.938 473.363 314.938C473.762 314.938 474.148 314.883 474.523 314.773C474.898 314.664 475.316 314.406 475.777 314V311.457C474.465 311.605 473.586 311.797 473.141 312.031C472.695 312.266 472.375 312.508 472.18 312.758C471.992 313.008 471.898 313.305 471.898 313.648ZM482.961 317C482.492 317 482.258 316.766 482.258 316.297V305.398C482.258 304.93 482.492 304.695 482.961 304.695H484.812C485.281 304.695 485.516 304.93 485.516 305.398V306.359H485.562C485.766 305.859 486.105 305.418 486.582 305.035C487.059 304.652 487.621 304.461 488.27 304.461C488.715 304.461 489.082 304.516 489.371 304.625C489.645 304.727 489.75 304.914 489.688 305.188L489.359 306.582C489.289 306.895 489.078 306.988 488.727 306.863C488.523 306.793 488.328 306.758 488.141 306.758C487.391 306.758 486.77 307.207 486.277 308.105C485.785 309.004 485.539 310.312 485.539 312.031V316.297C485.539 316.766 485.305 317 484.836 317H482.961ZM491.059 307.039C490.598 307.039 490.367 306.844 490.367 306.453V305.281C490.367 304.891 490.598 304.695 491.059 304.695H491.855V304.285C491.855 303.934 491.938 303.613 492.102 303.324L493.004 301.742C493.176 301.445 493.379 301.297 493.613 301.297H494.434C494.902 301.297 495.137 301.531 495.137 302V304.695H497.035C497.496 304.695 497.727 304.891 497.727 305.281V306.453C497.727 306.844 497.496 307.039 497.035 307.039H495.137V312.852C495.137 313.648 495.191 314.223 495.301 314.574C495.418 314.918 495.715 315.09 496.191 315.09C496.434 315.09 496.707 315.051 497.012 314.973C497.316 314.887 497.555 314.805 497.727 314.727C498 314.602 498.18 314.691 498.266 314.996L498.617 316.332C498.688 316.598 498.586 316.793 498.312 316.918C498.055 317.035 497.699 317.141 497.246 317.234C496.801 317.336 496.352 317.387 495.898 317.387C494.781 317.387 493.828 317.156 493.039 316.695C492.25 316.234 491.855 315.285 491.855 313.848V307.039H491.059Z" fill="black"/>
<rect x="214" y="198" width="933" height="239" fill="#D9D9D9"/>
<path d="M509.016 331V296.248H495.256V286.2H535.384V296.248H521.688V331H509.016ZM538.842 331V296.312H550.426V306.424L548.698 303.544C549.722 300.941 551.386 299 553.69 297.72C555.994 296.397 558.788 295.736 562.074 295.736V306.68C561.519 306.595 561.028 306.552 560.602 306.552C560.218 306.509 559.791 306.488 559.322 306.488C556.847 306.488 554.842 307.171 553.306 308.536C551.77 309.859 551.002 312.035 551.002 315.064V331H538.842ZM584.955 331.576C580.859 331.576 577.275 330.808 574.203 329.272C571.174 327.693 568.806 325.56 567.099 322.872C565.435 320.141 564.603 317.048 564.603 313.592C564.603 310.136 565.414 307.064 567.035 304.376C568.699 301.645 570.982 299.533 573.883 298.04C576.784 296.504 580.048 295.736 583.675 295.736C587.088 295.736 590.203 296.44 593.019 297.848C595.835 299.213 598.075 301.24 599.739 303.928C601.403 306.616 602.235 309.88 602.235 313.72C602.235 314.147 602.214 314.637 602.171 315.192C602.128 315.747 602.086 316.259 602.043 316.728H574.587V310.328H595.579L590.971 312.12C591.014 310.541 590.715 309.176 590.075 308.024C589.478 306.872 588.624 305.976 587.515 305.336C586.448 304.696 585.19 304.376 583.739 304.376C582.288 304.376 581.008 304.696 579.899 305.336C578.832 305.976 578 306.893 577.403 308.088C576.806 309.24 576.507 310.605 576.507 312.184V314.04C576.507 315.747 576.848 317.219 577.531 318.456C578.256 319.693 579.28 320.653 580.603 321.336C581.926 321.976 583.504 322.296 585.339 322.296C587.046 322.296 588.496 322.061 589.691 321.592C590.928 321.08 592.144 320.312 593.339 319.288L599.739 325.944C598.075 327.779 596.027 329.187 593.595 330.168C591.163 331.107 588.283 331.576 584.955 331.576ZM630.434 295.736C633.122 295.736 635.554 296.291 637.729 297.4C639.906 298.467 641.612 300.131 642.85 302.392C644.13 304.653 644.77 307.576 644.77 311.16V331H632.61V313.144C632.61 310.669 632.098 308.877 631.074 307.768C630.092 306.616 628.706 306.04 626.914 306.04C625.634 306.04 624.46 306.339 623.394 306.936C622.327 307.491 621.495 308.365 620.898 309.56C620.3 310.755 620.002 312.312 620.002 314.232V331H607.842V296.312H619.426V306.168L617.186 303.288C618.508 300.771 620.322 298.893 622.626 297.656C624.93 296.376 627.532 295.736 630.434 295.736ZM667.946 331.576C664.788 331.576 661.908 330.851 659.306 329.4C656.746 327.907 654.698 325.837 653.161 323.192C651.626 320.504 650.858 317.304 650.858 313.592C650.858 309.923 651.626 306.765 653.161 304.12C654.698 301.432 656.746 299.363 659.306 297.912C661.908 296.461 664.788 295.736 667.946 295.736C670.932 295.736 673.45 296.376 675.498 297.656C677.588 298.936 679.167 300.899 680.234 303.544C681.3 306.189 681.833 309.539 681.833 313.592C681.833 317.731 681.322 321.123 680.298 323.768C679.274 326.413 677.738 328.376 675.69 329.656C673.642 330.936 671.06 331.576 667.946 331.576ZM670.506 321.912C671.871 321.912 673.087 321.592 674.154 320.952C675.263 320.312 676.138 319.373 676.778 318.136C677.418 316.856 677.738 315.341 677.738 313.592C677.738 311.843 677.418 310.371 676.778 309.176C676.138 307.939 675.263 307 674.154 306.36C673.087 305.72 671.871 305.4 670.506 305.4C669.098 305.4 667.839 305.72 666.73 306.36C665.663 307 664.81 307.939 664.17 309.176C663.53 310.371 663.21 311.843 663.21 313.592C663.21 315.341 663.53 316.856 664.17 318.136C664.81 319.373 665.663 320.312 666.73 320.952C667.839 321.592 669.098 321.912 670.506 321.912ZM678.122 331V325.048L678.186 313.592L677.546 302.136V283.512H689.706V331H678.122ZM720.441 331.896C716.9 331.896 713.614 331.341 710.585 330.232C707.598 329.08 704.996 327.459 702.777 325.368C700.601 323.277 698.894 320.824 697.657 318.008C696.42 315.149 695.801 312.013 695.801 308.6C695.801 305.187 696.42 302.072 697.657 299.256C698.894 296.397 700.601 293.923 702.777 291.832C704.996 289.741 707.598 288.141 710.585 287.032C713.614 285.88 716.9 285.304 720.441 285.304C724.58 285.304 728.27 286.029 731.513 287.48C734.798 288.931 737.529 291.021 739.705 293.752L731.641 301.048C730.19 299.341 728.59 298.04 726.841 297.144C725.134 296.248 723.214 295.8 721.081 295.8C719.246 295.8 717.561 296.099 716.025 296.696C714.489 297.293 713.166 298.168 712.057 299.32C710.99 300.429 710.137 301.773 709.497 303.352C708.9 304.931 708.601 306.68 708.601 308.6C708.601 310.52 708.9 312.269 709.497 313.848C710.137 315.427 710.99 316.792 712.057 317.944C713.166 319.053 714.489 319.907 716.025 320.504C717.561 321.101 719.246 321.4 721.081 321.4C723.214 321.4 725.134 320.952 726.841 320.056C728.59 319.16 730.19 317.859 731.641 316.152L739.705 323.448C737.529 326.136 734.798 328.227 731.513 329.72C728.27 331.171 724.58 331.896 720.441 331.896ZM765.838 331V324.536L765.006 322.936V311.032C765.006 309.112 764.409 307.64 763.214 306.616C762.062 305.549 760.206 305.016 757.646 305.016C755.982 305.016 754.297 305.293 752.59 305.848C750.883 306.36 749.433 307.085 748.238 308.024L744.142 299.768C746.105 298.488 748.451 297.507 751.182 296.824C753.955 296.099 756.707 295.736 759.438 295.736C765.07 295.736 769.422 297.037 772.494 299.64C775.609 302.2 777.166 306.232 777.166 311.736V331H765.838ZM755.598 331.576C752.825 331.576 750.478 331.107 748.558 330.168C746.638 329.229 745.166 327.949 744.142 326.328C743.161 324.707 742.67 322.893 742.67 320.888C742.67 318.755 743.203 316.92 744.27 315.384C745.379 313.805 747.065 312.611 749.326 311.8C751.587 310.947 754.51 310.52 758.094 310.52H766.286V316.856H759.758C757.795 316.856 756.409 317.176 755.598 317.816C754.83 318.456 754.446 319.309 754.446 320.376C754.446 321.443 754.851 322.296 755.662 322.936C756.473 323.576 757.582 323.896 758.99 323.896C760.313 323.896 761.507 323.576 762.574 322.936C763.683 322.253 764.494 321.229 765.006 319.864L766.67 324.344C766.03 326.733 764.771 328.547 762.894 329.784C761.059 330.979 758.627 331.576 755.598 331.576ZM784.842 331V296.312H796.426V306.424L794.698 303.544C795.722 300.941 797.386 299 799.69 297.72C801.994 296.397 804.788 295.736 808.074 295.736V306.68C807.519 306.595 807.028 306.552 806.602 306.552C806.218 306.509 805.791 306.488 805.322 306.488C802.847 306.488 800.842 307.171 799.306 308.536C797.77 309.859 797.002 312.035 797.002 315.064V331H784.842ZM827.883 331.576C824.726 331.576 821.846 330.851 819.243 329.4C816.683 327.907 814.635 325.837 813.099 323.192C811.563 320.504 810.795 317.304 810.795 313.592C810.795 309.923 811.563 306.765 813.099 304.12C814.635 301.432 816.683 299.363 819.243 297.912C821.846 296.461 824.726 295.736 827.883 295.736C830.87 295.736 833.387 296.376 835.435 297.656C837.526 298.936 839.104 300.899 840.171 303.544C841.238 306.189 841.771 309.539 841.771 313.592C841.771 317.731 841.259 321.123 840.235 323.768C839.211 326.413 837.675 328.376 835.627 329.656C833.579 330.936 830.998 331.576 827.883 331.576ZM830.443 321.912C831.808 321.912 833.024 321.592 834.091 320.952C835.2 320.312 836.075 319.373 836.715 318.136C837.355 316.856 837.675 315.341 837.675 313.592C837.675 311.843 837.355 310.371 836.715 309.176C836.075 307.939 835.2 307 834.091 306.36C833.024 305.72 831.808 305.4 830.443 305.4C829.035 305.4 827.776 305.72 826.667 306.36C825.6 307 824.747 307.939 824.107 309.176C823.467 310.371 823.147 311.843 823.147 313.592C823.147 315.341 823.467 316.856 824.107 318.136C824.747 319.373 825.6 320.312 826.667 320.952C827.776 321.592 829.035 321.912 830.443 321.912ZM838.059 331V325.048L838.123 313.592L837.483 302.136V283.512H849.643V331H838.059Z" fill="#FF4F2F"/>
</svg>
