<?xml version="1.0"?>
<svg xmlns="http://www.w3.org/2000/svg" width="1094" height="714" viewBox="0 0 1094 714" fill="none" style="background-color:transparent;">
  <rect width="1094" height="714" fill="none"/>
  <path d="M635.333 295.6C624.533 298.267 622.667 298.933 623.333 300C623.733 300.8 623.333 300.933 622.267 300.533C619.867 299.6 606.267 310.267 607.467 312.267C608 313.067 607.867 313.333 607.067 312.933C604.267 311.2 593.467 327.6 592.933 334.533C592.8 336.667 592.267 338.133 591.733 337.733C591.067 337.467 590.667 337.6 590.667 338.267C590.667 338.8 590.133 343.067 589.333 347.733C588.133 356.533 588.933 365.733 590.8 364.667C591.333 364.267 591.6 365.2 591.333 366.667C590.667 369.867 594.4 381.333 596.133 381.333C596.8 381.333 597.333 382.4 597.333 383.867C597.333 388 609.333 399.333 618.667 404.133C627.067 408.533 627.867 408.667 642.133 408.533C653.333 408.533 658.133 407.867 661.867 406.133C666.4 404 667.067 404 670 405.867C677.6 410.933 678.8 408.533 678.533 389.067C678.4 376.667 678 374.667 676.133 374.667C674.8 374.667 672.533 377.867 670 383.067C667.867 387.6 664 393.6 661.333 396.4C654.4 404 649.733 405.733 638 405.067C628.8 404.667 627.733 404.267 623.333 400C614.933 391.733 614 387.333 614 352V320.667L618 312.667C622.4 303.867 626.667 300.8 636.267 299.333C645.067 298 652 300.4 658.8 307.067C664.667 312.933 665.733 314.533 670 324.933C671.6 328.8 673.2 330.667 674.933 330.667C677.067 330.667 677.333 329.333 677.333 316.267C677.333 298.8 676.667 297.6 669.733 299.867C665.333 301.333 663.867 301.2 658.533 298.933C652.133 296.133 640 294.4 635.333 295.6Z" fill="#1E2A38"/>
  <path d="M540.533 297.6C538.933 300 541.867 301.2 547.2 300.533C550.933 300 553.333 300.267 554 301.2C554.933 302.8 555.067 349.467 554.133 350.4C553.867 350.667 551.067 349.067 547.867 346.8C541.2 341.867 531.6 341.067 528.533 344.933C527.467 346.4 526.8 346.667 526.667 345.6C526.667 342.4 523.067 344 517.067 350C509.2 357.733 506.267 364 505.6 374.667C504.933 386.133 509.2 396 518.267 404C524.533 409.333 524.8 409.467 533.333 408.933C544.533 408.267 546 407.733 549.733 404.267C553.867 400.4 554.667 400.533 554.667 405.067C554.667 408.267 555.2 408.8 558.4 408.533C560.4 408.533 566.933 408.267 572.933 408.267C582.133 408 583.733 407.733 583.2 406C582.667 404.667 580.533 404 577.2 404H572L571.733 350.267L571.333 296.667H556.267C547.867 296.667 540.8 297.067 540.533 297.6ZM545.467 348.267C553.6 352.8 555.067 357.333 554.4 377.2C554 390.8 553.467 394.667 551.467 397.6C546.267 405.333 534.533 409.2 528.8 404.933C525.333 402.4 524.133 393.067 524.667 373.467C525.333 354 527.2 347.2 532.267 346.267C538.4 345.067 540.4 345.333 545.467 348.267Z" fill="#1E2A38"/>
  <path d="M857.733 297.867C856.533 299.733 860.267 301.067 864.933 300.4C872.933 299.067 873.333 300.267 873.333 326.133C873.333 347.067 872.4 353.333 870 349.333C866.667 344 849.2 340.4 847.467 344.8C846.8 346.533 846.267 346.667 844.667 345.333C843.067 344 841.733 344.533 837.733 347.733C830.8 353.2 828.8 355.733 826 362.667C822.4 371.6 822.933 383.2 827.333 392.133C831.733 400.933 840.133 408.533 845.867 408.933C848.133 409.067 850.133 409.2 850.4 409.333C852.533 411.067 864.667 407.467 868.4 403.867C871.6 400.933 873.333 401.733 873.333 405.867C873.333 408.933 873.467 408.933 887.067 408.4C903.867 407.6 908.4 404.933 894.8 403.733L890.267 403.333L889.867 352C889.467 323.733 888.933 299.6 888.533 298.4C888 296.533 885.867 296.267 873.2 296.4C865.067 296.533 858.133 297.2 857.733 297.867ZM866.133 350C871.467 354.133 873.333 359.867 873.333 372.8C873.333 390.133 872.267 394.133 865.867 400.8C860.8 406 859.467 406.667 854.267 406.667C844.267 406.667 843.333 404.667 842.933 380.8C842.533 356.8 844.133 348 849.333 346.4C854.667 344.933 861.2 346.267 866.133 350Z" fill="#1E2A38"/>
  <path d="M219.886 299.6C208.027 299.867 196.649 300.267 194.886 300.667C191.841 301.2 191.361 302.667 190.079 314.933C188.156 333.467 188.316 333.867 191.361 334.4C193.284 334.667 194.405 333.733 195.207 331.067C196.809 325.333 203.7 315.733 209.309 311.467C218.924 304.133 232.867 300.4 234.95 304.8C236.232 307.6 236.232 402.4 235.11 404.133C234.469 404.8 230.943 405.333 226.937 405.333C221.809 405.333 219.886 405.867 219.886 407.333C219.886 409.733 223.251 410 225.976 407.733C227.097 406.8 227.899 406.667 227.899 407.333C227.899 408.133 238.155 408.667 252.738 408.667C271.488 408.667 277.578 408.267 277.578 406.933C277.578 405.867 274.853 405.333 269.565 405.333C265.238 405.333 261.552 405.2 261.392 404.933C261.392 404.8 260.911 382.133 260.43 354.533C259.789 317.467 260.11 304.133 261.392 303.333C265.078 301.467 275.494 304.267 283.186 309.067C289.276 312.8 292.481 316.4 297.449 324.667C300.975 330.533 304.02 334.533 304.5 333.6C304.821 332.667 305.782 332.4 306.744 332.8C307.866 333.467 308.186 331.733 307.545 327.867C307.064 324.667 306.103 316.8 305.462 310.267L304.5 298.667L272.93 298.933C255.623 299.067 231.745 299.467 219.886 299.6Z" fill="#FF4F2F"/>
  <path d="M372 342.533C358.8 346.667 348 361.6 348 375.867C348 390.8 353.2 399.733 364.933 405.467C372.667 409.2 386.533 410 393.2 407.2C400.8 403.867 401.733 403.333 403.2 400.533C404 399.2 405.6 397.333 406.8 396.4C409.867 394.133 410.8 389.733 408.533 388.8C407.467 388.4 406.667 388.8 406.667 389.6C406.667 391.733 400.267 399.733 396.667 402.133C394.933 403.333 390 404.667 385.733 405.333C370.133 407.467 366.133 402.4 366.933 381.333L367.333 370L372.667 369.333C375.6 368.933 384.667 368.933 392.667 369.467C401.733 370 408 369.867 409.067 368.933C411.867 366.8 410.933 360.8 406.667 354.133C400.133 343.867 384.667 338.667 372 342.533ZM386.267 343.467C385.867 344 386.933 345.467 388.667 346.933C392.267 349.733 394.133 356.667 392.8 362C391.867 365.467 391.867 365.467 379.6 365.067L367.333 364.667L366.933 358.533C366.4 350.267 370.4 345.333 378.8 344C387.2 342.533 387.2 342.533 386.267 343.467Z" fill="#1E2A38"/>
  <path d="M299.067 343.6C294.4 343.867 290.667 344.667 290.667 345.333C290.667 346.133 289.467 346.667 288 346.667C286.533 346.667 285.333 346 285.333 345.2C285.333 344.533 284.667 344.267 283.867 344.8C281.467 346.267 284.267 347.733 290 348.267L295.333 348.667V376.667V404.667L289.733 405.067C285.6 405.333 284.267 406 284.933 407.333C285.467 408.8 287.333 409.067 292.4 408.667C304.267 407.733 322.267 407.6 323.867 408.533C324.667 409.067 325.333 408.8 325.333 408C325.333 407.2 326 406.933 326.8 407.467C327.733 408 328.133 407.6 327.733 406.533C327.333 405.333 325.067 404.667 321.2 404.667H315.333L314.4 398C314 394.267 313.467 385.467 313.467 378.4C313.333 364.133 315.2 357.733 321.333 352.533C325.067 349.2 326.667 349.6 326.667 353.467C326.667 357.067 332.533 362.667 336.4 362.667C340.667 362.667 345.333 357.333 345.333 352.533C345.333 340.267 325.733 339.333 317.867 351.333C314.8 356.133 313.6 355.467 313.067 348.933C312.667 342.667 313.067 342.8 299.067 343.6Z" fill="#1E2A38"/>
  <path d="M462.267 343.6C460.133 344 456.133 346.533 453.2 349.467C450.4 352.267 447.733 354.667 447.333 354.667C446.933 354.667 446.267 352.267 445.867 349.333L444.933 344H433.2C424.533 344 421.333 344.4 421.333 345.6C421.333 346.8 420.8 346.667 420 345.333C418.8 343.6 418.533 343.6 417.333 345.333C416.267 346.933 417.067 347.467 422 347.733C426.133 348 428.133 348.8 428.533 350.4C429.6 353.733 428.667 401.867 427.467 403.733C426.933 404.667 424.4 405.333 421.867 405.333C418.667 405.333 417.333 405.867 417.6 406.933C418.667 410.133 454.667 409.867 454.667 406.667C454.667 406 453.067 405.333 451.067 405.067L447.333 404.667V384.667C447.333 361.867 447.733 359.6 453.2 353.467C456.267 350 458.533 348.933 463.2 348.4C469.2 347.733 469.333 347.733 471.333 352.4C472.8 356 473.333 362.4 473.333 377.067C473.333 388 472.933 398.933 472.533 401.2C471.733 404.933 471.2 405.333 466.533 405.333C463.6 405.333 461.333 406 461.333 406.667C461.333 408.533 465.333 410 466.533 408.533C466.933 407.867 474.8 407.6 483.733 408C492.933 408.4 500.533 408.133 501.067 407.467C501.467 406.8 501.067 406.667 500.267 407.2C499.333 407.733 498.667 407.467 498.667 406.667C498.667 405.867 498.267 405.467 497.733 405.733C497.067 406.133 495.333 405.867 493.733 405.2C490.667 404.133 490.667 403.733 490.667 379.733C490.667 357.6 490.4 354.933 488 350.933C486.267 348 484.533 346.667 483.333 347.2C482.267 347.6 481.467 347.2 481.733 346.4C482.267 343.733 471.6 342.267 462.267 343.6Z" fill="#1E2A38"/>
  <path d="M702 343.6C697.067 344.533 690.533 351.067 689.867 355.733C688.933 361.733 692.133 366.667 697.067 366.667C704.4 366.533 707.733 361.067 704.667 353.733C702.133 347.733 702.133 346.667 704.8 346.667C705.867 346.667 706.4 346 706 345.333C705.067 343.867 707.067 343.467 708.533 344.933C709.067 345.467 711.467 345.733 713.867 345.6C720.8 344.933 724 349.867 724 361.6C724 372.267 724.133 372.133 708.267 374.533C696.267 376.4 687.467 381.733 685.6 388.4C684.267 393.2 684.933 401.333 686.667 401.333C687.333 401.333 688.133 402.4 688.667 403.733C689.733 407.333 695.067 409.333 703.067 409.333C709.733 409.333 712.267 408.267 720.8 402C723.467 400 723.867 400.133 727.2 404.667C730.4 408.8 731.467 409.333 737.2 409.333C741.733 409.333 744.667 408.533 747.2 406.533C751.2 403.333 750.533 400.8 746 401.867C744.267 402.267 742.4 401.867 741.6 400.933C740.8 400 740 389.333 739.733 375.067C739.333 348 739.2 347.733 729.733 344.533C725.067 342.8 708.133 342.267 702 343.6ZM722.933 385.333C722.4 397.2 719.333 401.867 711.6 401.867C704 401.867 700.133 395.467 701.867 386C702.933 380.933 706.667 377.6 713.733 376C722.933 373.733 723.333 374.267 722.933 385.333Z" fill="#1E2A38"/>
  <path d="M773.333 343.6C768.667 343.867 764.267 344.8 763.733 345.733C762.933 346.933 762.133 346.933 760.133 345.733C758.4 344.667 757.2 344.533 756.667 345.333C755.6 347.067 757.867 347.733 764.667 348.267L770 348.667V376.667V404.667L764.4 405.067C760.267 405.333 758.933 406 759.6 407.333C760.133 408.8 762 409.067 767.067 408.667C778.667 407.733 795.6 407.6 797.067 408.533C797.867 408.933 798.8 408.8 799.333 408C799.867 407.2 800.8 407.067 801.6 407.467C802.4 408 802.8 407.6 802.4 406.533C801.867 405.2 799.867 404.8 795.867 404.933C792.533 405.067 789.6 404.533 789.067 403.6C787.333 400.933 787.867 364.533 789.6 360.4C793.333 351.733 801.333 347.867 801.333 354.667C801.333 358.267 806 362.667 809.867 362.667C814.267 362.667 818.533 358.8 819.467 353.733C820.133 350.267 819.6 348.8 816.933 346.133C810.8 340 797.733 342.533 791.733 351.067L788.8 355.2L787.6 350.667C787.067 348.133 786.533 345.2 786.4 344.267C786.267 343.467 785.333 342.8 784.133 342.933C782.933 343.067 778.133 343.333 773.333 343.6Z" fill="#1E2A38"/>
</svg>
