<svg width="268" height="46" viewBox="0 0 268 46" fill="none" xmlns="http://www.w3.org/2000/svg">
<rect width="268" height="46" fill="#1E1E1E"/>
<path d="M33.928 45V18.984H42.616V26.568L41.32 24.408C42.088 22.456 43.336 21 45.064 20.04C46.792 19.048 48.888 18.552 51.352 18.552V26.76C50.936 26.696 50.568 26.664 50.248 26.664C49.96 26.632 49.64 26.616 49.288 26.616C47.432 26.616 45.928 27.128 44.776 28.152C43.624 29.144 43.048 30.776 43.048 33.048V45H33.928ZM68.5131 45.432C65.4411 45.432 62.7531 44.856 60.4491 43.704C58.1771 42.52 56.4011 40.92 55.1211 38.904C53.8731 36.856 53.2491 34.536 53.2491 31.944C53.2491 29.352 53.8571 27.048 55.0731 25.032C56.3211 22.984 58.0331 21.4 60.2091 20.28C62.3851 19.128 64.8331 18.552 67.5531 18.552C70.1131 18.552 72.4491 19.08 74.5611 20.136C76.6731 21.16 78.3531 22.68 79.6011 24.696C80.8491 26.712 81.4731 29.16 81.4731 32.04C81.4731 32.36 81.4571 32.728 81.4251 33.144C81.3931 33.56 81.3611 33.944 81.3291 34.296H60.7371V29.496H76.4811L73.0251 30.84C73.0571 29.656 72.8331 28.632 72.3531 27.768C71.9051 26.904 71.2651 26.232 70.4331 25.752C69.6331 25.272 68.6891 25.032 67.6011 25.032C66.5131 25.032 65.5531 25.272 64.7211 25.752C63.9211 26.232 63.2971 26.92 62.8491 27.816C62.4011 28.68 62.1771 29.704 62.1771 30.888V32.28C62.1771 33.56 62.4331 34.664 62.9451 35.592C63.4891 36.52 64.2571 37.24 65.2491 37.752C66.2411 38.232 67.4251 38.472 68.8011 38.472C70.0811 38.472 71.1691 38.296 72.0651 37.944C72.9931 37.56 73.9051 36.984 74.8011 36.216L79.6011 41.208C78.3531 42.584 76.8171 43.64 74.9931 44.376C73.1691 45.08 71.0091 45.432 68.5131 45.432ZM102.622 18.552C104.638 18.552 106.462 18.968 108.094 19.8C109.726 20.6 111.006 21.848 111.934 23.544C112.894 25.24 113.374 27.432 113.374 30.12V45H104.254V31.608C104.254 29.752 103.87 28.408 103.102 27.576C102.366 26.712 101.326 26.28 99.982 26.28C99.022 26.28 98.142 26.504 97.342 26.952C96.542 27.368 95.918 28.024 95.47 28.92C95.022 29.816 94.798 30.984 94.798 32.424V45H85.678V18.984H94.366V26.376L92.686 24.216C93.678 22.328 95.038 20.92 96.766 19.992C98.494 19.032 100.446 18.552 102.622 18.552ZM130.756 45.432C128.388 45.432 126.228 44.888 124.276 43.8C122.356 42.68 120.82 41.128 119.668 39.144C118.516 37.128 117.94 34.728 117.94 31.944C117.94 29.192 118.516 26.824 119.668 24.84C120.82 22.824 122.356 21.272 124.276 20.184C126.228 19.096 128.388 18.552 130.756 18.552C132.996 18.552 134.884 19.032 136.42 19.992C137.988 20.952 139.172 22.424 139.972 24.408C140.772 26.392 141.172 28.904 141.172 31.944C141.172 35.048 140.788 37.592 140.02 39.576C139.252 41.56 138.1 43.032 136.564 43.992C135.028 44.952 133.092 45.432 130.756 45.432ZM132.676 38.184C133.7 38.184 134.612 37.944 135.412 37.464C136.244 36.984 136.9 36.28 137.38 35.352C137.86 34.392 138.1 33.256 138.1 31.944C138.1 30.632 137.86 29.528 137.38 28.632C136.9 27.704 136.244 27 135.412 26.52C134.612 26.04 133.7 25.8 132.676 25.8C131.62 25.8 130.676 26.04 129.844 26.52C129.044 27 128.404 27.704 127.924 28.632C127.444 29.528 127.204 30.632 127.204 31.944C127.204 33.256 127.444 34.392 127.924 35.352C128.404 36.28 129.044 36.984 129.844 37.464C130.676 37.944 131.62 38.184 132.676 38.184ZM138.388 45V40.536L138.436 31.944L137.956 23.352V9.384H147.076V45H138.388ZM170.128 45.672C167.472 45.672 165.008 45.256 162.736 44.424C160.496 43.56 158.544 42.344 156.88 40.776C155.248 39.208 153.968 37.368 153.04 35.256C152.112 33.112 151.648 30.76 151.648 28.2C151.648 25.64 152.112 23.304 153.04 21.192C153.968 19.048 155.248 17.192 156.88 15.624C158.544 14.056 160.496 12.856 162.736 12.024C165.008 11.16 167.472 10.728 170.128 10.728C173.232 10.728 176 11.272 178.432 12.36C180.896 13.448 182.944 15.016 184.576 17.064L178.528 22.536C177.44 21.256 176.24 20.28 174.928 19.608C173.648 18.936 172.208 18.6 170.608 18.6C169.232 18.6 167.968 18.824 166.816 19.272C165.664 19.72 164.672 20.376 163.84 21.24C163.04 22.072 162.4 23.08 161.92 24.264C161.472 25.448 161.248 26.76 161.248 28.2C161.248 29.64 161.472 30.952 161.92 32.136C162.4 33.32 163.04 34.344 163.84 35.208C164.672 36.04 165.664 36.68 166.816 37.128C167.968 37.576 169.232 37.8 170.608 37.8C172.208 37.8 173.648 37.464 174.928 36.792C176.24 36.12 177.44 35.144 178.528 33.864L184.576 39.336C182.944 41.352 180.896 42.92 178.432 44.04C176 45.128 173.232 45.672 170.128 45.672ZM204.175 45V40.152L203.551 38.952V30.024C203.551 28.584 203.103 27.48 202.207 26.712C201.343 25.912 199.951 25.512 198.031 25.512C196.783 25.512 195.519 25.72 194.239 26.136C192.959 26.52 191.871 27.064 190.975 27.768L187.903 21.576C189.375 20.616 191.135 19.88 193.183 19.368C195.263 18.824 197.327 18.552 199.375 18.552C203.599 18.552 206.863 19.528 209.167 21.48C211.503 23.4 212.671 26.424 212.671 30.552V45H204.175ZM196.495 45.432C194.415 45.432 192.655 45.08 191.215 44.376C189.775 43.672 188.671 42.712 187.903 41.496C187.167 40.28 186.799 38.92 186.799 37.416C186.799 35.816 187.199 34.44 187.999 33.288C188.831 32.104 190.095 31.208 191.791 30.6C193.487 29.96 195.679 29.64 198.367 29.64H204.511V34.392H199.615C198.143 34.392 197.103 34.632 196.495 35.112C195.919 35.592 195.631 36.232 195.631 37.032C195.631 37.832 195.935 38.472 196.543 38.952C197.151 39.432 197.983 39.672 199.039 39.672C200.031 39.672 200.927 39.432 201.727 38.952C202.559 38.44 203.167 37.672 203.551 36.648L204.799 40.008C204.319 41.8 203.375 43.16 201.967 44.088C200.591 44.984 198.767 45.432 196.495 45.432ZM218.428 45V18.984H227.116V26.568L225.82 24.408C226.588 22.456 227.836 21 229.564 20.04C231.292 19.048 233.388 18.552 235.852 18.552V26.76C235.436 26.696 235.068 26.664 234.748 26.664C234.46 26.632 234.14 26.616 233.788 26.616C231.932 26.616 230.428 27.128 229.276 28.152C228.124 29.144 227.548 30.776 227.548 33.048V45H218.428ZM250.709 45.432C248.341 45.432 246.181 44.888 244.229 43.8C242.309 42.68 240.773 41.128 239.621 39.144C238.469 37.128 237.893 34.728 237.893 31.944C237.893 29.192 238.469 26.824 239.621 24.84C240.773 22.824 242.309 21.272 244.229 20.184C246.181 19.096 248.341 18.552 250.709 18.552C252.949 18.552 254.837 19.032 256.373 19.992C257.941 20.952 259.125 22.424 259.925 24.408C260.725 26.392 261.125 28.904 261.125 31.944C261.125 35.048 260.741 37.592 259.973 39.576C259.205 41.56 258.053 43.032 256.517 43.992C254.981 44.952 253.045 45.432 250.709 45.432ZM252.629 38.184C253.653 38.184 254.565 37.944 255.365 37.464C256.197 36.984 256.853 36.28 257.333 35.352C257.813 34.392 258.053 33.256 258.053 31.944C258.053 30.632 257.813 29.528 257.333 28.632C256.853 27.704 256.197 27 255.365 26.52C254.565 26.04 253.653 25.8 252.629 25.8C251.573 25.8 250.629 26.04 249.797 26.52C248.997 27 248.357 27.704 247.877 28.632C247.397 29.528 247.157 30.632 247.157 31.944C247.157 33.256 247.397 34.392 247.877 35.352C248.357 36.28 248.997 36.984 249.797 37.464C250.629 37.944 251.573 38.184 252.629 38.184ZM258.341 45V40.536L258.389 31.944L257.909 23.352V9.384H267.029V45H258.341Z" fill="white"/>
<path d="M14.016 45V10.248H0.256V0.199997H40.384V10.248H26.688V45H14.016Z" fill="#FF4F2F"/>
</svg>
